<?xml version="1.0" encoding="utf-8"?>
<!-- Generator: Adobe Illustrator 16.0.0, SVG Export Plug-In . SVG Version: 6.00 Build 0)  -->
<!DOCTYPE svg PUBLIC "-//W3C//DTD SVG 1.1//EN" "http://www.w3.org/Graphics/SVG/1.1/DTD/svg11.dtd">
<svg version="1.1" id="Layer_1" xmlns="http://www.w3.org/2000/svg" xmlns:xlink="http://www.w3.org/1999/xlink" x="0px" y="0px"
	 width="48px" height="48px" viewBox="0 0 48 48" enable-background="new 0 0 48 48" xml:space="preserve">
<g id="Layer_1_1_" display="none">
	<g display="inline">
		<path d="M31,15v15c0,2.42-1.463,7-7,7c-5.534,0-7-4.58-7-7V16c0-0.126,0.018-1.269,0.607-2.447C18.429,11.907,19.99,11,22,11
			c2.012,0,3.575,0.906,4.395,2.552C26.982,14.729,27,15.872,27,16l0,0v13c0,1.207-0.797,3-3,3c-2.199,0-3-1.793-3-3v-9
			c0-0.552,0.449-1,1-1c0.553,0,1,0.448,1,1v9c0.012,0.449,0.195,1,1,1c0.807,0,0.99-0.551,1-1.012V16c-0.004-0.496-0.176-3-3-3
			c-1.266,0-2.117,0.474-2.605,1.448C19.017,15.203,19,15.993,19,16v14c0.004,0.508,0.178,5,5,5c4.945,0,5-4.797,5-5V15
			c0-0.552,0.449-1,1-1C30.553,14,31,14.448,31,15L31,15z"/>
	</g>
</g>
<g id="Layer_2" display="none">
	<path display="inline" fill="#666666" d="M32,13H16c-1.657,0-3,1.343-3,3v16c0,1.658,1.343,3,3,3h16c1.656,0,3-1.342,3-3V16
		C35,14.343,33.656,13,32,13z M31.613,24.161C29.982,30.779,19.035,33.584,14,26.717c1.93,1.84,5.29,2.002,7.418-0.201
		c-1.248,0.187-2.16-1.043-0.623-1.705c-1.381,0.151-2.148-0.583-2.461-1.208c0.32-0.337,0.68-0.494,1.369-0.543
		c-1.51-0.355-2.069-1.096-2.241-1.993c0.421-0.1,0.946-0.185,1.229-0.146c-1.32-0.694-1.781-1.735-1.708-2.517
		c2.364,0.879,3.872,1.584,5.129,2.26c0.447,0.239,0.952,0.671,1.516,1.219c0.721-1.902,1.606-3.865,3.128-4.839
		c-0.023,0.224-0.141,0.427-0.297,0.597c0.432-0.392,0.992-0.663,1.562-0.741c-0.064,0.429-0.683,0.669-1.056,0.808
		c0.285-0.086,1.779-0.753,1.945-0.374c0.188,0.432-1.033,0.635-1.242,0.707c-0.157,0.054-0.312,0.111-0.467,0.173
		c1.896-0.187,3.711,1.38,4.237,3.322c0.039,0.144,0.076,0.295,0.113,0.461c0.691,0.258,1.951-0.014,2.357-0.265
		c-0.293,0.695-1.055,1.206-2.18,1.3c0.541,0.223,1.562,0.351,2.266,0.229C33.553,23.736,32.834,24.169,31.613,24.161z"/>
	<rect display="inline" fill="none" width="48" height="48"/>
</g>
<g id="Layer_3" display="none">
	<g display="inline">
		<g>
			<path fill="#666666" d="M16.883,25c-1.103,0-2,0.898-2,2c0,1.104,0.897,2,2,2s2-0.896,2-2C18.883,25.898,17.986,25,16.883,25z"/>
			<path fill="#666666" d="M38.436,21.224l-3.104,1.553c-0.095,0.048-0.179,0.13-0.25,0.224h-3.197v-1c0-0.55-0.448-1-1-1h-5.457
				l2.222-3h5.235c1.101,0,2-0.9,2-2s-0.899-2-2-2h-7c-1.1,0-2,0.9-2,2c0,0.875,0.574,1.615,1.361,1.885L22.939,21h-9.228
				l-1.655-1.656l-3.829,3.828l2.656,2.656V30c0,0.551,0.318,1.318,0.707,1.707l1.586,1.586C13.565,33.682,14.334,34,14.883,34h16
				c0.551,0,1-0.449,1-1v-1h3.197c0.072,0.094,0.156,0.176,0.25,0.225l3.105,1.553c0.246,0.123,0.446-0.002,0.446-0.276v-12
				C38.883,21.225,38.682,21.101,38.436,21.224z M16.883,30c-1.656,0-3-1.342-3-3c0-1.656,1.344-3,3-3c1.658,0,3,1.343,3,3
				C19.883,28.658,18.541,30,16.883,30z"/>
		</g>
		<path fill="#666666" d="M11.325,18.442c0.277,0.276,0.277,0.724,0,1l-3,3c-0.275,0.276-0.723,0.276-1,0l0,0
			c-0.275-0.276-0.275-0.724,0-1l3-3C10.602,18.166,11.049,18.166,11.325,18.442L11.325,18.442z"/>
		<path fill="#666666" d="M40.883,33.5c0,0.275-0.225,0.5-0.5,0.5l0,0c-0.275,0-0.5-0.225-0.5-0.5v-12c0-0.275,0.225-0.5,0.5-0.5
			l0,0c0.275,0,0.5,0.225,0.5,0.5V33.5z"/>
	</g>
	<rect display="inline" fill="none" width="48" height="48"/>
</g>
<g id="Layer_4" display="none">
	<g display="inline">
		<path fill="#666666" d="M35,24c0-1.656,1.342-3,3-3v-6H10v6c1.657,0,3,1.344,3,3c0,1.657-1.343,3-3,3v6h28v-6
			C36.342,27,35,25.656,35,24z M34,29c0,1.104-0.896,2-2,2H16c-1.104,0-2-0.896-2-2V19c0-1.104,0.896-2,2-2h16c1.104,0,2,0.896,2,2
			V29z"/>
		<path fill="#666666" d="M32,18h-3v12h3c0.551,0,1-0.449,1-1V19C33,18.448,32.551,18,32,18z"/>
		<path fill="#666666" d="M16,18c-0.552,0-1,0.448-1,1v10c0,0.551,0.448,1,1,1h12V18H16z M24.539,28.568L21.5,26.387l-3.039,2.182
			l1.07-3.654l-2.949-2.307l3.701-0.078l1.217-3.605l1.217,3.605l3.699,0.078l-2.949,2.307L24.539,28.568z"/>
	</g>
	<rect display="inline" fill="none" width="48" height="48"/>
</g>
<g id="Layer_5" display="none">
	<g display="inline">
		<g>
			<path fill="#666666" d="M23.895,28.859c-0.396,0-0.777-0.158-1.061-0.439l-3.766-3.768c-0.586-0.585-0.586-1.534,0-2.12
				c0.586-0.586,1.535-0.586,2.121,0l2.479,2.476l6.422-9.546c0.463-0.688,1.395-0.869,2.082-0.407
				c0.688,0.462,0.869,1.395,0.408,2.082l-7.441,11.058c-0.25,0.373-0.652,0.613-1.1,0.656
				C23.99,28.855,23.943,28.859,23.895,28.859L23.895,28.859z"/>
		</g>
		<path fill="#666666" d="M29.164,25.764v4.438c0,0.553-0.447,1-1,1h-10c-0.551,0-1-0.447-1-1v-10c0-0.552,0.448-1,1-1h6.963
			l1.332-2h-8.295c-1.654,0-3,1.346-3,3v10c0,1.653,1.346,3,3,3h10c1.654,0,3-1.347,3-3v-7.438L29.164,25.764z"/>
	</g>
	<rect display="inline" fill="none" width="48" height="48"/>
</g>
<g id="Layer_6" display="none">
	<g display="inline">
		<path fill="#666666" d="M35.08,22.152h-1.107c-0.508,0-1.047-0.396-1.197-0.882l-0.637-1.546
			c-0.238-0.446-0.141-1.107,0.217-1.466l0.787-0.785c0.359-0.36,0.359-0.947,0-1.307l-1.309-1.306
			c-0.357-0.358-0.945-0.358-1.305,0l-0.787,0.786c-0.357,0.358-1.02,0.456-1.467,0.216l-1.545-0.635
			c-0.484-0.15-0.883-0.689-0.883-1.197v-1.108c0-0.507-0.416-0.924-0.924-0.924h-1.846c-0.508,0-0.924,0.417-0.924,0.924v1.108
			c0,0.508-0.396,1.047-0.881,1.197l-1.545,0.635c-0.449,0.241-1.107,0.144-1.467-0.216l-0.788-0.786
			c-0.359-0.358-0.945-0.358-1.305,0l-1.305,1.306c-0.361,0.358-0.361,0.946,0,1.306l0.783,0.786
			c0.359,0.358,0.459,1.02,0.217,1.466l-0.635,1.547c-0.152,0.485-0.689,0.882-1.197,0.882l-1.109-0.001
			c-0.508,0-0.924,0.416-0.924,0.924v1.846c0,0.508,0.416,0.924,0.924,0.924h1.109c0.508,0,1.045,0.398,1.195,0.883l0.637,1.545
			c0.241,0.447,0.143,1.109-0.217,1.468l-0.785,0.784c-0.359,0.359-0.359,0.947,0,1.308l1.307,1.308
			c0.359,0.358,0.945,0.358,1.305,0l0.788-0.785c0.357-0.359,1.018-0.457,1.463-0.215l1.549,0.637
			c0.484,0.149,0.881,0.688,0.881,1.195v1.104c0,0.508,0.416,0.924,0.924,0.924h1.846c0.508,0,0.924-0.416,0.924-0.924v-1.104
			c0-0.509,0.397-1.046,0.883-1.195l1.549-0.637c0.447-0.242,1.107-0.146,1.467,0.215l0.783,0.785c0.359,0.358,0.947,0.358,1.305,0
			l1.309-1.308c0.359-0.358,0.359-0.946,0-1.308l-0.787-0.784c-0.356-0.357-0.455-1.021-0.217-1.468l0.637-1.545
			c0.15-0.483,0.691-0.883,1.197-0.883h1.107c0.508,0,0.922-0.414,0.922-0.922v-1.848C36.002,22.568,35.588,22.152,35.08,22.152z
			 M28.621,23.998c0,2.549-2.068,4.615-4.617,4.615c-2.551,0-4.617-2.066-4.617-4.615s2.066-4.615,4.617-4.615
			C26.553,19.383,28.621,21.449,28.621,23.998z"/>
	</g>
	<rect display="inline" fill="none" width="48" height="48"/>
</g>
<g>
	<path fill="#FFFFFF" d="M34.001,18h-8.515l3.359-4.03C28.898,13.979,28.945,14,29,14c0.553,0,1-0.447,1-1c0-0.551-0.447-1-1-1
		c-0.551,0-1,0.448-1,1c0,0.12,0.029,0.232,0.07,0.339L24.185,18H23.82l-3.885-4.661c0.037-0.106,0.066-0.219,0.066-0.339
		c0-0.551-0.447-1-1-1C18.45,12,18,12.449,18,13c0,0.553,0.45,1,1.001,1c0.057,0,0.104-0.021,0.156-0.03l3.36,4.03H14
		c-1.103,0-2,0.896-2,2v14c0,1.104,0.897,2,2,2h20.001c1.104,0,2-0.896,2-2V20C36.001,18.896,35.105,18,34.001,18z M30.001,32
		c0,1.104-0.896,2-2,2H16c-1.103,0-2-0.896-2-2V22c0-1.104,0.897-2,2-2h12.001c1.104,0,2,0.896,2,2V32z M33.001,29
		c-1.104,0-2-0.896-2-2s0.896-2,2-2s2,0.896,2,2S34.105,29,33.001,29z M33.001,24.001c-1.104,0-2-0.896-2-2c0-1.105,0.896-2,2-2
		s2,0.895,2,2C35.001,23.104,34.105,24.001,33.001,24.001z"/>
</g>
<g id="Layer_8" display="none">
	<g display="inline">
		<path fill="#666666" d="M33.999,11H14c-1.104,0-2,0.896-2,2v18c0,1.104,0.896,2,2,2h5.999l4,4l4-4h6c1.104,0,2-0.896,2-2V13
			C35.999,11.895,35.104,11,33.999,11z M23.792,14c2.008,0,3.635,1.627,3.635,3.637c0,2.008-1.627,3.637-3.635,3.637
			c-2.01,0-3.637-1.629-3.637-3.637C20.155,15.626,21.782,14,23.792,14z M28.855,30H18.726c0,0-1.479-7.274,5.066-7.274
			S28.855,30,28.855,30z"/>
	</g>
	<rect display="inline" fill="none" width="48" height="48"/>
</g>
<g id="Layer_9" display="none">
	<rect display="inline" fill="none" width="48" height="48"/>
</g>
</svg>
